<svg xmlns="http://www.w3.org/2000/svg" viewBox="0 0 436.18 288.42"><defs><style>.cls-1{isolation:isolate;}.cls-2,.cls-4{fill:#f2f2f2;}.cls-2{stroke:#000;stroke-miterlimit:10;stroke-width:5px;}.cls-3,.cls-6{fill:#999;}.cls-3,.cls-5{mix-blend-mode:multiply;opacity:0.24;}.cls-7{fill:#b3b3b3;}</style></defs><g class="cls-1"><g id="Layer_2" data-name="Layer 2"><g id="Layer_1-2" data-name="Layer 1"><path class="cls-2" d="M390.71,144.21c0,78.26-76.62,141.71-150.2,141.71S95.41,222.47,95.41,144.21,166.94,2.5,240.51,2.5,390.71,66,390.71,144.21Z"/><path class="cls-3" d="M390.71,142.74c0,77.12-77.07,141.38-149.68,141.38-41,0-78-14-111-54,26.18,22.86,63.79,38,98.1,38,72.62,0,148.24-62.54,148.24-139.66,0-32.38-22.49-65.6-43.34-89.3C362,60.12,390.71,103.43,390.71,142.74Z"/><path class="cls-4" d="M379.86,178c2.36-3,12-3.7,16.79-2.91,12.27,2,22.09,8.42,34.36,10.45,1.72.29,2.94.93,3,2.81a61.48,61.48,0,0,1-.05,8.14c-.46,6.14-2,12.2-5.58,17.23-4.49,6.36-11.43,10.43-19.2,10.43a33.63,33.63,0,0,1-7.47-1.34c-1.87-.43-1.82-.25-3.35,1a32.79,32.79,0,0,1-20.61,7.64,32.09,32.09,0,0,1-20.64-7.66c-2-1.65-2.17-2.8-4.71-1.77a25.27,25.27,0,0,1-9.7,2.11A24.51,24.51,0,0,1,323,213.71c-3.7-5.09-5-11.21-5.57-17.36-.24-2.5-1.22-6.23-.35-8.66"/><path d="M379.86,178c1.55-1.9,4.15-2.52,6.43-3.08,12.07-2.87,23.88,3,35.12,6.47a69.83,69.83,0,0,0,8.47,2.1l1.78.29c1.67.19,3.82,1.54,4.15,3.42a6,6,0,0,1,.18,1.25,53.68,53.68,0,0,1-.6,13.92c-2.91,16.87-17.81,28.32-34.8,22.75-.19,0-.23,0,.06,0a1.47,1.47,0,0,0,.29-.11l-.08,0a33.73,33.73,0,0,1-46.21-.64l-.54-.54c-.13-.12-.19-.14-.15-.13s0,0-.38.08c-5.8,2.4-12.63,3-18.62.77-9.6-3.31-16.39-12.65-17.48-22.52-.47-3.59-.7-7.17-1-10.77a9.15,9.15,0,0,1,.5-3.57c-.6,2.35.09,4.73.53,7.05,1,6.83,2.51,14.21,7.26,19.37,5.8,6.85,15.61,10.12,24.18,7.08,1.61-.45,2.86-1.34,4.65-1.58a4.3,4.3,0,0,1,3.16,1A29.75,29.75,0,0,0,397,221.72a5.88,5.88,0,0,1,2.54-1.53,6.12,6.12,0,0,1,2.87.21c13.79,4.88,26.18-5.44,28.7-18.89a55,55,0,0,0,1-13.19c0-.68-.45-.72-1.19-.93l-1.74-.37c-14.54-2.94-27.45-13.47-42.78-11.4-2.28.33-4.84.66-6.55,2.37Z"/><g class="cls-5"><path class="cls-6" d="M430,193.86a27.35,27.35,0,0,1-5.55,12.6c-3.85,4.7-9.7,7.93-15.83,7.75-1.95,0-4.79-1-7.41-1.49a5.76,5.76,0,0,0-3.71.58c-1.51,1-2.64,2.22-4.12,3.17-10.13,7.31-24.68,6.71-34.34-1.17-1.28-.94-2-2-3.63-2.69-1.92-.78-4,.12-5.52.81-13.66,6-26.67-3.64-29.56-17.65-.62-2.28,0-3.71-.52-6.12s-1.58-.26-1.05-2.63c-.91,2.27-1,.62-.88,3s.16,3.94.49,6.35c.95,10.08,7.81,23.25,17.65,26.77,6,2.33,12.09-.68,18-3-.06-.06-.85-1.83-.91-1.89s-.06,0,.13,0a1.41,1.41,0,0,0,.37.06h0l-.12,0-.2.07a34.1,34.1,0,0,0,6.58,5.14c12.59,8,29.6,6.15,40.77-3.5l-.62-.13a2.15,2.15,0,1,1,.5-.06,2.29,2.29,0,0,0,.61-.23l.06,0-.55.46h0c16.93,5.57,28.79-5.73,31.34-22.54a29.32,29.32,0,0,0,.34-8.93C430.14,192.51,430.39,193.43,430,193.86Z"/><path class="cls-6" d="M429.87,182v0l.09.05C429.9,182,429.85,182,429.87,182Z"/><path class="cls-6" d="M400.14,219.62a2.29,2.29,0,0,1-.61.23,2.15,2.15,0,1,0-.5.06l.62.13.55-.46Z"/><path class="cls-6" d="M352.62,218.31a1.41,1.41,0,0,1-.37-.06c-.19-.06-.22-.11-.13,0l.18.17.2-.07Z"/></g><path d="M348.9,192.2c.45,5.29.75,10.7,2.15,15.8,1.66,5.11,4,9.49,5.74,14.68l-.24.18c-7-5.19-8.57-14.38-8.42-22.56.07-2.72.23-5.41.47-8.1Z"/><path d="M395.9,192.2c.45,5.29.75,10.7,2.15,15.8,1.66,5.11,4,9.49,5.74,14.68l-.24.18c-7-5.19-8.57-14.38-8.42-22.56.07-2.72.23-5.41.47-8.1Z"/><path class="cls-4" d="M134.24,205.59a70.37,70.37,0,0,1-65.36,21.1c-38.15-7.6-47.56-44.72-55.29-82.84-2.51-12.32-5.64-24.49-8.7-36.68-2.7-10.79-4.37-20.86,1.59-31A34.43,34.43,0,0,1,33.31,59.44c11.95-.95,22.12,5.73,31.91,11.62,10.21,6.15,20.65,12,31.21,17.49,21.12,11.07,41.74,20.41,50.69,40.69"/><path d="M134.24,205.59a70.54,70.54,0,0,1-65.68,22.6c-41.89-7.25-51.09-52.92-58.26-88.13C7.6,127.26,4,114.81,1.17,102c-3.3-14.55.23-28,12.46-37.36,9.21-7.08,21.93-9.49,32.94-5.56,6.36,2.13,12.19,5.74,17.76,9.2C79.07,77.48,94.27,85.76,109.58,94c15.09,8.31,30.86,18.56,37.54,35.2-7.64-16.06-23.4-25.33-38.69-33C92.87,88.45,77.26,80.54,62.31,71.59c-5.56-3.29-11-6.48-17.07-8.46C29.68,57.66,11.1,67.25,6.13,82.87,3,93,6.66,103.5,9.07,113.56c3.08,12.15,6.19,25.84,8.64,38.25,6.42,30.71,16.32,66.27,51.45,73.38a71,71,0,0,0,65.08-19.6Z"/><path d="M47.35,98.42c18,4,36.8,12.38,49.47,26.16,4.31,4.87,10.09,12.61,5.27,19.13-1.91,2.66-4.24,4.12-6.51,6-1.37,1.16-2.22,1.92-2.7,3.44-2,6.75,5.7,12.66,9.49,17.37,3.41,4,6.84,8,10,12.27l-.34.37c-3.89-3.6-13.54-12.55-17.25-16-4.92-4.23-8.85-11.69-5-17.89,2.11-3.35,6.08-5.23,8.29-8.31,4-5-6.84-15.32-10.38-18.69-7.77-6.95-16.94-12.21-26.19-16.95q-7-3.54-14.3-6.41l.18-.46Z"/><g class="cls-5"><path class="cls-7" d="M44.37,98.65a93.36,93.36,0,0,1,44.5,19c8.89,7.72,21,20.74,7.74,30.76a40.62,40.62,0,0,0-4.72,4,5.4,5.4,0,0,0-1,3.65c.63,5.62,5.82,9.56,9,14,3.28,4.15,6.49,8.37,9.41,12.91-4.71-2.63-9.12-5.59-13.46-8.61-4.63-3.43-9.7-6.36-12.75-11.46A15.87,15.87,0,0,1,86,142.33c1.58-1.63,3.89-3.15,4.7-4.63a1.45,1.45,0,0,0-.12.65c-6.62-14.68-32.72-30-46.23-39.7Z"/></g><ellipse cx="276.28" cy="118.62" rx="33.61" ry="43.5"/><ellipse class="cls-4" cx="280.68" cy="107.2" rx="18.23" ry="23.6"/></g></g></g></svg>